<?xml version="1.0" encoding="utf-8"?>
<!-- Generator: Adobe Illustrator 22.0.1, SVG Export Plug-In . SVG Version: 6.00 Build 0)  -->
<svg version="1.1" id="Ebene_1" xmlns="http://www.w3.org/2000/svg" xmlns:xlink="http://www.w3.org/1999/xlink" x="0px" y="0px"
	 viewBox="0 0 161.4 47.2" style="enable-background:new 0 0 161.4 47.2;" xml:space="preserve">
<style type="text/css">
	.st0{fill:#FFCC00;}
	.st1{fill:#FFFFFF;}
	.st2{fill:#FF0000;}
</style>
<g>
	<rect class="st0" width="161.4" height="47.2"/>
	<polygon class="st1" points="122.6,35.3 124,28.5 15.2,28.5 13.8,35.3 	"/>
	<g>
		<g>
			<g>
				<polygon points="124.2,16.4 113.3,16.4 112.7,19.1 116.6,19.1 114.1,30.8 117.2,30.8 119.7,19.1 123.6,19.1 				"/>
				<g>
					<path d="M95.9,16.3c-5,0-6.9,3.4-7.7,7.3c-0.8,4,0.9,7.3,5.4,7.3c5,0,6.9-3.4,7.7-7.3C102.1,19.6,100.4,16.3,95.9,16.3z
						 M97.9,23.6c-0.5,2.3-1.5,4.7-4.1,4.7c-2.5,0-2.9-2.4-2.4-4.7c0.5-2.3,1.5-4.7,4.1-4.7C98.1,18.9,98.5,21.2,97.9,23.6z"/>
				</g>
				<polygon points="51.7,16.4 48.6,16.4 45.5,30.8 48.6,30.8 				"/>
				<g>
					<path d="M83.9,16.5c-0.4-0.1-0.9-0.1-1.4-0.1h-3.9l-3.1,14.4h3.1l0.9-4.4h1.8c0.9,0,1.6-0.1,2.2-0.3c2.2-0.7,3.6-2.5,4-4.4
						C88,19,86.6,16.9,83.9,16.5z M84.4,21.4c-0.2,0.9-0.8,1.8-1.7,2.2c-0.3,0.1-0.8,0.2-1.1,0.2h-1.5l1-4.7h1.4
						c0.4,0,0.7,0,0.9,0.1C84.1,19.4,84.6,20.1,84.4,21.4z"/>
				</g>
				<polygon points="47.2,16.4 44,16.4 39.8,26.7 39.7,16.4 36,16.4 32,26.6 31.7,16.4 28.7,16.4 29.5,30.8 32.9,30.8 37.1,20.4 
					37.5,30.8 40.9,30.8 				"/>
			</g>
		</g>
		<path d="M107.4,19.1c0.5-0.1,0.9-0.1,1.7-0.1h2.3l0.6-2.7h-2.6c-0.8,0-1.7,0-2.6,0.1c-2,0.2-3.9,1.7-3.9,4.2c0,1.7,1,2.6,2,3.3
			l1.7,1.2c0.5,0.3,0.8,0.6,1,0.9c0.2,0.3,0.2,0.4,0.2,0.7c0,0.3-0.1,0.6-0.3,0.8c-0.4,0.5-1.2,0.6-1.9,0.7
			c-1.8,0.2-3.8-0.5-3.8-0.5l0,0.1l0,0l-0.9,2.6c1.1,0.4,2.8,0.6,4.2,0.6c3.9,0,6.1-1.7,6.1-4.5c0-1.4-1-2.3-2-3.1l-1.8-1.4
			c-0.8-0.6-1.3-0.9-1.3-1.6C106.2,19.8,106.6,19.2,107.4,19.1z"/>
		<path d="M67.3,19.1c0.5-0.1,0.9-0.1,1.7-0.1h2.3l0.6-2.7h-2.6c-0.8,0-1.7,0-2.6,0.1c-2,0.2-3.9,1.7-3.9,4.2c0,1.7,1,2.6,2,3.3
			l1.7,1.2c0.5,0.3,0.8,0.6,1,0.9c0.2,0.3,0.2,0.4,0.2,0.7c0,0.3-0.1,0.6-0.3,0.8c-0.4,0.5-1.2,0.6-1.9,0.7
			c-1.8,0.2-3.8-0.5-3.8-0.5l-0.6,2.8c0,0,0,0,0,0c1.1,0.3,2.6,0.5,3.9,0.5c3.9,0,6.1-1.7,6.1-4.5c0-1.4-1-2.3-2-3.1L67.3,22
			c-0.8-0.6-1.3-0.9-1.3-1.6C66.1,19.8,66.5,19.2,67.3,19.1z"/>
		<path d="M57.1,19.1c0.5-0.1,0.9-0.1,1.7-0.1h2.3l0.6-2.7H59c-0.8,0-1.7,0-2.6,0.1c-2,0.2-3.9,1.7-3.9,4.2c0,1.7,1,2.6,2,3.3
			l1.7,1.2c0.5,0.3,0.8,0.6,1,0.9c0.2,0.3,0.2,0.4,0.2,0.7c0,0.3-0.1,0.6-0.3,0.8c-0.4,0.5-1.2,0.6-1.9,0.7
			c-1.8,0.2-3.8-0.5-3.8-0.5l-0.6,2.8c0,0,0,0,0,0c1.1,0.3,2.6,0.5,3.9,0.5c3.9,0,6.1-1.7,6.1-4.5c0-1.4-1-2.3-2-3.1L57.1,22
			c-0.8-0.6-1.3-0.9-1.3-1.6C55.8,19.8,56.3,19.2,57.1,19.1z"/>
		<path d="M23.1,19.1c0.5-0.1,0.9-0.1,1.7-0.1h2.3l0.6-2.7h-2.6c-0.8,0-1.7,0-2.6,0.1c-2,0.2-3.9,1.7-3.9,4.2c0,1.7,1,2.6,2,3.3
			l1.7,1.2c0.5,0.3,0.8,0.6,1,0.9c0.2,0.3,0.2,0.4,0.2,0.7c0,0.3-0.1,0.6-0.3,0.8c-0.4,0.5-1.2,0.6-1.9,0.7
			c-1.8,0.2-3.8-0.5-3.8-0.5l-0.6,2.8c0,0,0,0,0,0c1.1,0.3,2.6,0.5,3.9,0.5c3.9,0,6.2-1.7,6.2-4.5c0-1.4-1-2.3-2-3.1L23.2,22
			c-0.8-0.6-1.3-0.9-1.3-1.6C21.9,19.8,22.3,19.2,23.1,19.1z"/>
	</g>
	<path class="st2" d="M138.9,16.4c0,0,1.8-8.6,1.8-8.7c0,0-11.6,0-11.7,0c0,0-2.4,11.3-2.4,11.4c0,0,2.9,0,2.9,0
		c0,0,1.9-8.7,1.9-8.7h5.9c0,0-1.9,8.6-1.9,8.7c0,0,8.7,0,8.7,0l-1.2,5.4c0,0-8.7,0-8.7,0c0,0-1.7,8.1-1.7,8.1s-6.6,0-6.6,0
		c0,0-0.6,2.7-0.6,2.7c0,0,9.4,0,9.5,0c0,0,1.7-8.1,1.7-8.1s8.6,0,8.7,0c0,0,2.3-10.8,2.3-10.8C147.6,16.4,138.9,16.4,138.9,16.4z"
		/>
</g>
</svg>
